<?xml version="1.0" standalone="no"?>
<!DOCTYPE svg PUBLIC "-//W3C//DTD SVG 20010904//EN"
 "http://www.w3.org/TR/2001/REC-SVG-20010904/DTD/svg10.dtd">
<svg version="1.0" xmlns="http://www.w3.org/2000/svg"
 width="591.000000pt" height="591.000000pt" viewBox="0 0 591.000000 591.000000"
 preserveAspectRatio="xMidYMid meet">
<metadata>
Created by potrace 1.14, written by Peter Selinger 2001-2017
</metadata>
<g transform="translate(0.000000,591.000000) scale(0.100000,-0.100000)"
fill="#000000" stroke="none">
<path d="M2483 5901 c-11 -6 -33 -25 -48 -44 l-28 -34 -41 23 c-80 46 -157 18
-152 -54 2 -28 2 -28 -28 -14 -37 19 -88 20 -121 2 -21 -11 -31 -34 -26 -62 1
-7 -13 -11 -21 -7 -2 1 -21 -6 -43 -15 -46 -20 -85 -53 -85 -74 0 -11 -9 -12
-42 -6 -24 4 -56 6 -73 6 -30 -2 -65 -33 -65 -56 0 -7 -16 -20 -35 -29 -19 -9
-35 -23 -35 -31 0 -13 -5 -13 -37 0 -48 21 -101 6 -138 -38 -23 -27 -26 -38
-21 -70 5 -30 3 -38 -9 -38 -27 0 -94 -39 -111 -66 -14 -20 -15 -29 -5 -51 11
-24 9 -29 -20 -55 -28 -26 -31 -34 -27 -72 l5 -42 -53 -28 c-41 -22 -56 -36
-62 -58 -6 -24 -18 -34 -67 -53 -81 -33 -116 -70 -122 -129 -5 -38 -2 -53 15
-76 l21 -28 -46 -88 c-31 -60 -46 -104 -48 -134 -1 -25 -13 -66 -25 -92 -21
-41 -22 -53 -13 -92 8 -38 7 -52 -9 -88 -11 -24 -22 -68 -25 -98 -3 -30 -10
-64 -16 -75 -6 -11 -12 -90 -14 -175 -4 -183 -4 -141 5 -425 8 -246 8 -458 -1
-490 -3 -11 -8 -49 -11 -85 -4 -36 -8 -75 -10 -85 -2 -11 -9 -63 -15 -115 -7
-52 -14 -108 -16 -125 -19 -134 -26 -530 -12 -660 30 -269 121 -555 243 -768
67 -116 148 -224 324 -431 52 -61 167 -174 215 -212 28 -21 114 -102 192 -180
168 -167 230 -204 423 -254 202 -53 559 -11 760 90 359 181 436 217 446 209 6
-5 43 12 93 41 45 28 84 50 86 50 2 0 40 23 85 50 45 28 83 50 85 50 2 0 48
25 102 57 352 203 567 418 677 679 25 61 60 186 70 254 3 19 8 46 10 60 3 14
7 47 11 75 3 27 7 51 9 52 2 2 20 -4 42 -13 75 -32 145 -10 226 72 45 44 68
103 97 244 31 147 40 184 67 273 13 42 26 90 29 105 3 15 29 124 59 242 46
184 54 226 51 292 -3 94 -31 158 -80 188 -37 23 -112 32 -157 19 -35 -9 -38 3
-21 66 19 69 18 239 -2 365 -9 58 -18 130 -21 160 -2 30 -7 84 -11 120 -3 36
-7 76 -8 90 -1 14 -4 39 -8 55 -4 17 -9 54 -12 84 -3 29 -8 58 -12 64 -3 6
-10 27 -14 46 -11 53 -40 134 -54 151 -14 17 -25 45 -31 79 -3 13 -11 36 -19
52 -8 15 -15 33 -15 38 0 6 -13 40 -30 76 -16 36 -30 69 -30 73 0 4 -11 33
-24 65 -38 95 -94 182 -139 218 -99 79 -140 125 -175 198 -27 56 -42 76 -66
86 -17 7 -35 11 -40 7 -6 -3 -6 2 -1 14 4 10 9 42 9 70 2 80 -52 144 -119 144
-14 0 -25 5 -25 10 0 33 -110 101 -152 95 -11 -2 -31 15 -53 45 -51 70 -96 94
-171 95 -53 1 -66 5 -101 33 -46 36 -83 52 -122 52 -16 0 -40 9 -53 20 -32 24
-110 42 -156 35 -24 -4 -54 2 -96 19 -83 33 -124 38 -187 22 -32 -9 -85 -13
-128 -11 -61 3 -76 1 -93 -15 -20 -18 -21 -18 -42 2 -51 49 -163 80 -213 59z"/>
</g>
</svg>
